<svg width="40" height="40" fill="none" xmlns="http://www.w3.org/2000/svg"><g clip-path="url(#clip0)"><path d="M34.2 5.748C30.4 2.075 25.4 0 20.075 0 4.792 0-4.805 16.558 2.827 29.73L0 40l10.558-2.753c4.6 2.485 8.369 2.265 9.527 2.411 17.722 0 26.543-21.44 14.09-33.845l.025-.065z" fill="#ECEFF1"/><path d="M20.112 36.252l-.01-.002h-.027c-5.303 0-8.692-2.512-9.025-2.657L4.8 35.218l1.675-6.075-.398-.625a16.448 16.448 0 01-2.527-8.767c0-14.654 17.908-21.983 28.272-11.624 10.338 10.25 3.08 28.124-11.71 28.124z" fill="#4CAF50"/><path d="M29.178 23.845l-.015.125c-.501-.25-2.945-1.445-3.4-1.61-1.021-.378-.733-.06-2.695 2.187-.291.325-.581.35-1.076.125-.5-.25-2.105-.775-4.005-2.475-1.48-1.325-2.474-2.95-2.767-3.45-.488-.843.533-.963 1.463-2.724.167-.35.082-.624-.041-.873-.125-.25-1.12-2.7-1.537-3.677-.4-.973-.812-.85-1.12-.85-.96-.083-1.662-.07-2.28.574-2.69 2.957-2.012 6.006.29 9.25 4.523 5.92 6.933 7.01 11.34 8.523 1.19.379 2.275.325 3.133.202.957-.152 2.945-1.202 3.36-2.377.425-1.175.425-2.15.3-2.375-.123-.225-.45-.35-.95-.575z" fill="#FAFAFA"/></g><defs><clipPath id="clip0"><path fill="#fff" d="M0 0h40v40H0z"/></clipPath></defs></svg>