<svg width="16" height="25" fill="none" xmlns="http://www.w3.org/2000/svg"><path d="M2.008 23.446a2.198 2.198 0 010-3.11l9.327-9.326a2.198 2.198 0 113.11 3.108l-9.328 9.328a2.198 2.198 0 01-3.11 0z" fill="#000"/><path d="M2.008 23.446a2.198 2.198 0 010-3.11l9.327-9.326a2.198 2.198 0 113.11 3.108l-9.328 9.328a2.198 2.198 0 01-3.11 0z" fill="#000"/><path d="M1.773 1.554a2.198 2.198 0 013.11 0l9.327 9.327a2.198 2.198 0 11-3.11 3.109L1.774 4.663a2.198 2.198 0 010-3.11z" fill="#000"/><path d="M1.773 1.554a2.198 2.198 0 013.11 0l9.327 9.327a2.198 2.198 0 11-3.11 3.109L1.774 4.663a2.198 2.198 0 010-3.11z" fill="#000"/></svg>