<svg width="100" height="100" fill="none" xmlns="http://www.w3.org/2000/svg"><path d="M92.188 25a6.256 6.256 0 00-6.25 6.25 6.14 6.14 0 00.263 1.791L65.54 45.525 54.477 26.231a6.25 6.25 0 10-8.954 0L34.461 45.525 13.799 33.041a6.25 6.25 0 10-6.291 4.451l7.77 37.549a1.56 1.56 0 00-1.169 1.143l-1.562 6.25a1.563 1.563 0 001.515 1.941h71.876a1.563 1.563 0 001.515-1.941l-1.562-6.25a1.56 1.56 0 00-1.168-1.143l7.77-37.549A6.25 6.25 0 0092.187 25zM50 18.75A3.125 3.125 0 1150 25a3.125 3.125 0 010-6.25zM8.451 34.309h-.003c-.001 0-.002 0-.003.002a3.297 3.297 0 11.006-.002zm7.613 46.941l.782-3.125h66.308l.782 3.125H16.064zM81.541 75H18.459l-7.89-38.143a6.266 6.266 0 001.61-1.142l22.034 13.312a1.564 1.564 0 002.164-.56l11.816-20.61a6.232 6.232 0 003.614 0l11.816 20.61a1.553 1.553 0 001.355.785c.285 0 .565-.078.81-.225L87.82 35.715c.474.463 1.018.85 1.612 1.142L81.54 75zm10.647-40.625a3.12 3.12 0 01-3.084-3.605 3.123 3.123 0 113.084 3.605z" fill="#000"/></svg>