<svg width="100" height="100" fill="none" xmlns="http://www.w3.org/2000/svg"><g clip-path="url(#clip0)" fill="#000"><path d="M87.867 20.247L50.283.22a1.867 1.867 0 00-1.78.01L11.96 20.259a1.87 1.87 0 00-.97 1.641v26.16a54.167 54.167 0 0032.465 49.575l5.073 2.21a1.869 1.869 0 001.489.002l5.715-2.468A54.06 54.06 0 0088.858 47.54V21.9c0-.692-.38-1.328-.99-1.653zM85.116 47.54a50.327 50.327 0 01-30.85 46.395l-.012.007-4.978 2.149-4.325-1.887A50.42 50.42 0 0114.73 48.059V23.007l34.685-19.01L85.116 23.02v24.52z"/><path d="M35.61 46.846a1.871 1.871 0 10-2.846 2.43l9.884 11.574a1.87 1.87 0 002.603.237l23.02-18.728a1.87 1.87 0 10-2.362-2.903L44.307 57.03 35.61 46.846z"/></g><defs><clipPath id="clip0"><path fill="#fff" d="M0 0h100v100H0z"/></clipPath></defs></svg>