<svg width="106" height="106" fill="none" xmlns="http://www.w3.org/2000/svg"><path d="M41.992 103.135a16.888 16.888 0 01-16.85-17.972 16.89 16.89 0 013.001-8.58l3.657-5.248a4.982 4.982 0 00-2.192-7.457l-8.243-3.39a8.846 8.846 0 01-4.011-13.035 8.843 8.843 0 0113.56-1.472l7.583 7.407a5.157 5.157 0 006.725.386 5.13 5.13 0 00.606-7.557L44.219 44.5a7.997 7.997 0 019.202-12.716l4.163 1.924a4.985 4.985 0 007.063-4.102l.493-5.772a9.647 9.647 0 1116.76 7.292l-5.451 6.017a4.975 4.975 0 007.262 6.798l1.037-1.072a9.038 9.038 0 0113.658.785 9.029 9.029 0 011.681 7.333 9.04 9.04 0 01-4.452 6.064l-.775.43a8.321 8.321 0 00-2.18 12.792l5.85 6.59a11.961 11.961 0 01-8.946 19.896 11.84 11.84 0 01-8.737-3.792l-5.485-5.865a9.386 9.386 0 00-14.774 1.368l-4.352 6.834a16.898 16.898 0 01-14.244 7.832zm-17.244-56.81a6.005 6.005 0 00-4.273 1.787 5.98 5.98 0 001.991 9.724l8.244 3.389a7.848 7.848 0 013.452 11.746l-3.664 5.251a14.023 14.023 0 1023.326 15.555l4.351-6.828a12.251 12.251 0 0119.285-1.79l5.478 5.863a9.007 9.007 0 006.644 2.885 9.095 9.095 0 006.81-15.123l-5.85-6.59a11.187 11.187 0 012.931-17.197l.775-.43a6.172 6.172 0 10-7.434-9.683l-1.037 1.071a7.84 7.84 0 01-11.445-10.713l5.45-6.016A6.78 6.78 0 1068 24.098l-.493 5.773a7.851 7.851 0 01-11.121 6.457l-4.166-1.95a5.131 5.131 0 00-5.906 8.165l1.609 1.72a7.994 7.994 0 01-11.428 11.172l-7.583-7.407a5.932 5.932 0 00-4.163-1.703z" fill="#000"/><path d="M94.904 34.461a5.52 5.52 0 01-4.002-1.718 5.605 5.605 0 01-1.186-5.905l.888-2.283a9.362 9.362 0 014.826-5.133 5.022 5.022 0 013.667-.213l.642.209a4.918 4.918 0 013.043 2.842 4.929 4.929 0 01-.22 4.158l-2.696 5.074a5.53 5.53 0 01-4.154 2.914 5.806 5.806 0 01-.808.055zm2.63-12.63c-.312 0-.62.069-.904.2a6.51 6.51 0 00-3.356 3.57l-.888 2.281a2.73 2.73 0 00.573 2.878 2.72 2.72 0 004.366-.613l2.703-5.08a2.064 2.064 0 00-.412-2.47 2.077 2.077 0 00-.767-.455l-.64-.209a2.148 2.148 0 00-.673-.101h-.002zM23.33 26.357a13.12 13.12 0 01-4.604-.963 31.68 31.68 0 01-10.584-7.248 7.957 7.957 0 01-2.213-7.937 10.275 10.275 0 017.055-7.058 7.96 7.96 0 017.941 2.213 31.774 31.774 0 017.25 10.58c1.472 3.85 1.263 6.988-.59 8.84a5.807 5.807 0 01-4.255 1.573zM15.145 5.73a5.49 5.49 0 00-1.42.192 7.43 7.43 0 00-5.029 5.029 5.121 5.121 0 001.474 5.174 28.805 28.805 0 009.579 6.596c2.653 1.01 4.827 1.026 5.814.039.987-.987.954-3.14-.06-5.79a28.886 28.886 0 00-6.6-9.577 5.192 5.192 0 00-3.758-1.663zM49.33 22.833a9.977 9.977 0 01-7.592-4.357c-2.993-4.046-3.008-9.127-.033-11.328a5.947 5.947 0 015.647-.595c2.07.782 3.86 2.16 5.147 3.96 3.044 4.114 3.07 9.078.061 11.306a5.34 5.34 0 01-3.23 1.014zM44.928 8.987a2.517 2.517 0 00-1.525.467c-1.676 1.24-1.387 4.594.632 7.321 2.018 2.728 5.139 3.987 6.815 2.746 1.676-1.24 1.358-4.572-.66-7.305a8.417 8.417 0 00-3.79-2.958 4.612 4.612 0 00-1.472-.27z" fill="#000"/></svg>