<svg width="100" height="100" fill="none" xmlns="http://www.w3.org/2000/svg"><path d="M43.677 24.602l-5.506-5.566a1.832 1.832 0 10-2.597 2.566l5.506 5.567a1.832 1.832 0 002.597-2.567zm46.681-5.278a1.832 1.832 0 00-2.796-.017l-5.566 5.506a1.832 1.832 0 102.567 2.597l5.566-5.506a1.831 1.831 0 00.23-2.58zm-33.173-1.147a1.796 1.796 0 00-.04-.158l-2.014-7.57a1.822 1.822 0 10-3.523.917l2.013 7.57a1.822 1.822 0 003.564-.759zm25.032 38.976a25.434 25.434 0 00-1.067-1.006l.302-.544c.375-.688.711-1.398 1.007-2.123 4.288-10.709-.917-22.866-11.626-27.153l-.06-.024c-9.68-3.859-20.725.006-25.888 9.059-12.62-3.525-25.707 3.848-29.231 16.468-.587 2.1-.881 4.27-.875 6.45v.947C6.02 59.848-.58 67.454.041 76.215c.587 8.28 7.444 14.717 15.745 14.778h52.39c10.946.02 19.834-8.838 19.853-19.784a19.82 19.82 0 00-5.812-14.056zM56.692 29.705a17.202 17.202 0 0112.712 0c8.85 3.53 13.169 13.56 9.653 22.416a17.45 17.45 0 01-.866 1.781v.161a19.839 19.839 0 00-16.648-1.53 23.692 23.692 0 00-5.999-10.76 8.495 8.495 0 0110.569-3.885 1.822 1.822 0 001.338-3.382 12.078 12.078 0 00-14.735 4.812 23.781 23.781 0 00-4.419-2.628 17.212 17.212 0 018.395-6.985zM72 86.887a16.175 16.175 0 01-3.804.443h-52.34c-6.765-.006-12.244-5.496-12.238-12.261A12.25 12.25 0 017.2 66.424l-.02.01a12.21 12.21 0 018.656-3.583h.836a1.822 1.822 0 001.912-2.164c-.04-.35-.074-.728-.1-1.138v-1.278c.149-11.084 9.254-19.948 20.338-19.799 9.74.132 17.978 7.236 19.54 16.85a1.822 1.822 0 002.617 1.369 16.044 16.044 0 013.503-1.269c8.689-2.076 17.415 3.285 19.491 11.974C86.05 76.084 80.69 84.81 72 86.886zm27.919-50.3a1.822 1.822 0 00-2.12-1.245l-7.57 2.013a1.822 1.822 0 00-1.308 2.214 1.822 1.822 0 002.218 1.31l.006-.001 7.57-2.014a1.822 1.822 0 001.204-2.277zm-1.285 17.808l-7.549-2.063a1.827 1.827 0 10-1.006 3.513l7.549 2.063a1.827 1.827 0 101.006-3.513zM72.912 9.227a1.827 1.827 0 00-2.26 1.253l-2.063 7.55a1.822 1.822 0 001.288 2.284 1.822 1.822 0 002.275-1.278l2.013-7.55a1.827 1.827 0 00-1.253-2.26z" fill="#000"/></svg>