<svg width="79" height="100" fill="none" xmlns="http://www.w3.org/2000/svg"><path d="M43.149 31.463L39.314 20.55l-3.835 10.913H23.084l10.036 6.743-3.836 10.918 10.03-6.732 10.03 6.738-3.836-10.917 10.036-6.75H43.149zm-.606 9l-3.229-2.17-3.23 2.17 1.24-3.52-3.224-2.168h3.974l1.24-3.529 1.24 3.529h3.974l-3.216 2.168 1.231 3.52z" fill="#000"/><path d="M75.78 42.103c1.6-1.547 2.602-3.541 2.848-5.672-.246-2.13-1.248-4.125-2.848-5.672a9.734 9.734 0 01-1.936-2.904 9.46 9.46 0 01.095-3.564 8.897 8.897 0 00-.573-6.076c-1.351-1.702-3.27-2.945-5.46-3.535a11.04 11.04 0 01-3.322-1.668 9.76 9.76 0 01-1.796-3.076c-.637-2.03-1.979-3.807-3.817-5.058a11.052 11.052 0 00-6.565-.533 11.906 11.906 0 01-3.846.088 10.783 10.783 0 01-3.133-1.793C43.76 1.158 41.611.23 39.315 0c-2.299.229-4.451 1.157-6.12 2.64a10.769 10.769 0 01-3.135 1.793 11.87 11.87 0 01-3.845-.088 11.044 11.044 0 00-6.557.532c-1.838 1.251-3.179 3.03-3.815 5.059a9.758 9.758 0 01-1.8 3.078 11.041 11.041 0 01-3.32 1.664c-2.19.591-4.108 1.834-5.457 3.537a8.895 8.895 0 00-.576 6.084c.257 1.174.29 2.38.095 3.564a9.747 9.747 0 01-1.936 2.903C1.25 32.311.248 34.303 0 36.431c.247 2.13 1.248 4.125 2.848 5.672a9.736 9.736 0 011.936 2.904 9.461 9.461 0 01-.095 3.564 8.896 8.896 0 00.574 6.076c1.35 1.703 3.27 2.945 5.459 3.535 1.205.37 2.33.934 3.322 1.668a9.757 9.757 0 011.796 3.076l.243.539V100l23.231-7.177L62.545 100V63.463c.08-.179.163-.358.241-.533a9.758 9.758 0 011.8-3.079 11.039 11.039 0 013.32-1.667c2.19-.59 4.108-1.834 5.458-3.537a8.896 8.896 0 00.575-6.084 9.46 9.46 0 01-.094-3.564 9.75 9.75 0 011.935-2.896zM58.97 82.798h-5.36v3.312h5.36v9.293L41.1 89.885V77.83h-3.574v12.055l-17.87 5.518V79.486h12.51v-3.312h-12.51v-8.187a11.078 11.078 0 006.558.53 11.95 11.95 0 013.846-.088 10.78 10.78 0 013.133 1.794c1.669 1.483 3.821 2.41 6.12 2.64 2.3-.23 4.452-1.157 6.12-2.64a10.77 10.77 0 013.135-1.794 11.955 11.955 0 013.846.088c2.189.492 4.492.306 6.556-.53v14.81zm13.973-42.714a11.965 11.965 0 00-2.55 4.066 11.65 11.65 0 000 4.845 6.708 6.708 0 01-.124 3.996 7.925 7.925 0 01-3.73 2.13 13.631 13.631 0 00-4.48 2.386 12.169 12.169 0 00-2.576 4.15 7.169 7.169 0 01-2.3 3.462 8.41 8.41 0 01-4.314.114 14.515 14.515 0 00-5.227 0 13.366 13.366 0 00-4.389 2.363 8.054 8.054 0 01-3.94 1.954 8.054 8.054 0 01-3.942-1.955 13.376 13.376 0 00-4.387-2.364 8.966 8.966 0 00-2.182-.243 25.51 25.51 0 00-3.038.245 8.36 8.36 0 01-4.32-.116 7.171 7.171 0 01-2.299-3.457 12.17 12.17 0 00-2.575-4.152 13.633 13.633 0 00-4.48-2.386 7.924 7.924 0 01-3.735-2.131 6.704 6.704 0 01-.123-3.998c.34-1.6.34-3.244 0-4.843a11.954 11.954 0 00-2.55-4.067 7.123 7.123 0 01-2.109-3.652 7.122 7.122 0 012.11-3.653 11.966 11.966 0 002.55-4.065c.34-1.6.34-3.246 0-4.846a6.707 6.707 0 01.124-3.995 7.926 7.926 0 013.731-2.13 13.626 13.626 0 004.48-2.386 12.17 12.17 0 002.575-4.152 7.17 7.17 0 012.3-3.46 8.391 8.391 0 014.314-.115c1.726.317 3.501.317 5.227 0a13.366 13.366 0 004.389-2.363 8.055 8.055 0 013.94-1.954 8.055 8.055 0 013.942 1.956 13.377 13.377 0 004.387 2.363 14.5 14.5 0 005.23 0 8.398 8.398 0 014.311.114 7.171 7.171 0 012.298 3.458 12.165 12.165 0 002.575 4.151 13.631 13.631 0 004.48 2.386 7.923 7.923 0 013.735 2.132c.447 1.295.49 2.68.124 3.997a11.63 11.63 0 000 4.844 11.955 11.955 0 002.55 4.067 7.122 7.122 0 012.108 3.651 7.122 7.122 0 01-2.11 3.653z" fill="#000"/><path d="M39.314 9.936c-15.79 0-28.592 11.862-28.592 26.495 0 14.633 12.801 26.495 28.592 26.495 15.791 0 28.592-11.862 28.592-26.495-.018-14.626-12.808-26.478-28.592-26.495zM64.332 36.43c-.018 9.481-6.251 18.001-15.748 21.527-12.834 4.744-27.388-1.05-32.507-12.944-5.12-11.892 1.134-25.379 13.968-30.122 12.834-4.744 27.388 1.051 32.507 12.944a21.697 21.697 0 011.78 8.595zM50.036 82.798h-3.574v3.312h3.574v-3.312z" fill="#000"/></svg>