<svg width="100" height="100" fill="none" xmlns="http://www.w3.org/2000/svg"><g clip-path="url(#clip0)" fill="#000"><path d="M19.609 51.58a1.563 1.563 0 001.346-1.753 6.323 6.323 0 00-.047-.298 1.562 1.562 0 10-3.076.554c.01.051.017.1.024.15a1.563 1.563 0 001.753 1.347z"/><path d="M83.083 40.986c-.264.002-.528.01-.79.019 5.086-5.836.826-14.924-6.955-14.924H60.214l1.939-7.231c1.152-4.304-1.412-8.745-5.717-9.901-4.355-1.164-8.754 1.45-9.9 5.716l-1.157 4.32v-9.97A9.007 9.007 0 0036.365 0c-4.97 0-9.014 4.044-9.014 9.014v3.712c-1.614-4.279-6.256-6.727-10.765-5.52a9.023 9.023 0 00-6.684 8.702c0 3.005 4.41 15.81 6.852 28.145a1.563 1.563 0 003.065-.607c-2.321-11.728-6.792-25.375-6.792-27.538a5.894 5.894 0 014.367-5.684c3.136-.839 6.373 1.028 7.213 4.163l9.158 34.273c1.959 7.334 8.694 12.217 15.642 12.217 5.492 0 10.129-2.031 13.636-5.539l4.873-4.873c4.182-4.181 9.716-6.355 15.217-6.355 3.459 0 5.07 4.005 2.747 6.327L73.099 63.218a30.066 30.066 0 00-6.846 10.535c-.034.087.122-.43-2.434 8.221-2.55 8.631-10.62 14.9-20.002 14.9-11.487 0-20.794-9.296-20.794-20.793 0-6.676-.405-13.42-1.203-20.046a1.562 1.562 0 10-3.102.374 165.15 165.15 0 011.18 19.672c0 19.943 22.785 30.75 38.297 19.16a23.738 23.738 0 008.62-12.381l2.377-8.043a26.96 26.96 0 016.116-9.389L88.09 52.647c4.282-4.283 1.302-11.661-5.006-11.661zm-1.709-6.027a5.883 5.883 0 01-5.887 6.026H53.495c-.72 0-1.347.492-1.518 1.192L48.199 57.67a13.217 13.217 0 01-2.82-.621V32.274a15.077 15.077 0 019.108-3.068h20.85c3.258 0 5.967 2.58 6.037 5.753zm-31.82-19.485c.701-2.608 3.393-4.224 6.074-3.507a4.968 4.968 0 013.507 6.074l-2.156 8.04c-3.346 0-6.536-.178-10.805 2.015l3.38-12.622zm-12.77 32.38l-6.308-23.61V9.015c0-5.212 6.354-7.865 10.054-4.165a5.851 5.851 0 011.724 4.165v46.483a13.232 13.232 0 01-5.47-7.643zm14.635 9.799l3.303-13.543h16.463c-8.43 4.705-10.157 12.492-19.766 13.543z"/></g><defs><clipPath id="clip0"><path fill="#fff" d="M0 0h100v100H0z"/></clipPath></defs></svg>