<svg width="96" height="96" fill="none" xmlns="http://www.w3.org/2000/svg"><path d="M94.452 0h-77.42c-.856 0-1.548.694-1.548 1.548V59a7.79 7.79 0 00-1.549-.161c-4.268 0-7.741 3.473-7.741 7.742v.032a7.757 7.757 0 00-2.927 4.613H1.548C.692 71.226 0 71.92 0 72.774v6.194c0 .854.692 1.548 1.548 1.548h1.549v4.645C3.097 91.138 7.96 96 13.935 96h80.517c.856 0 1.548-.694 1.548-1.548V1.548C96 .694 95.308 0 94.452 0zm-1.549 3.097V18.58H18.581V3.097h74.322zM8.583 68.744c.55-.31.858-.922.777-1.549l-.025-.18c-.02-.142-.045-.284-.045-.434a4.651 4.651 0 014.646-4.646c1.635 0 3.12.853 3.973 2.284a1.548 1.548 0 002.331.388c.604-.513 1.61-1.123 2.986-1.123 1.656 0 3.2.915 4.029 2.387a1.55 1.55 0 001.622.767c1.617-.288 3.272.822 3.58 2.466a1.55 1.55 0 002.711.71c.894-1.07 2.185-1.685 3.542-1.685 2.015 0 3.719 1.299 4.36 3.097H6.504c.375-1.025 1.084-1.924 2.079-2.482zm20.836-14.55c0-14.515 11.808-26.323 26.323-26.323s26.322 11.808 26.322 26.323c0 14.514-11.807 26.322-26.322 26.322-2.185 0-4.322-.294-6.402-.816a1.51 1.51 0 00.208-.732V76.58c2.007.554 4.08.84 6.194.84 12.807 0 23.226-10.42 23.226-23.227 0-12.806-10.42-23.225-23.226-23.225-12.807 0-23.226 10.419-23.226 23.226 0 4.081 1.06 8.019 3.063 11.516a7.532 7.532 0 00-1.005.543 6.2 6.2 0 00-3.33-2.483 26.156 26.156 0 01-1.825-9.577zM38.8 65.04a19.952 19.952 0 01-2.647-6.202h1.01a5.25 5.25 0 003.737-1.549l.907-.905c.83-.83 2.269-.83 3.097 0l.907.905c2 1.996 5.477 1.998 7.476 0l.907-.905c.83-.83 2.269-.83 3.097 0l.908.905c1.999 1.996 5.476 1.998 7.475 0l.908-.905c.828-.83 2.268-.83 3.096 0l.908.905a5.255 5.255 0 003.738 1.549h.986c-2.106 8.863-10.07 15.484-19.567 15.484-2.125 0-4.2-.347-6.194-.993v-.556c0-.854-.691-1.548-1.548-1.548h-1.705A7.75 7.75 0 0038.8 65.04zm-3.186-10.847c0-11.1 9.03-20.13 20.129-20.13 11.099 0 20.129 9.03 20.129 20.13 0 .523-.039 1.035-.079 1.548h-1.47a2.177 2.177 0 01-1.548-.641l-.907-.907c-2-1.996-5.477-1.998-7.476 0l-.907.905c-.829.829-2.268.829-3.097 0l-.907-.905c-2-1.996-5.477-1.998-7.476 0l-.907.905c-.829.829-2.268.829-3.097 0l-.907-.905c-2-1.996-5.477-1.998-7.476 0l-.907.905a2.172 2.172 0 01-1.549.643h-1.49a20.632 20.632 0 01-.058-1.548zM3.097 74.323h43.355v3.096H3.097v-3.096zm30.968 18.58h-20.13c-4.268 0-7.741-3.473-7.741-7.742v-4.645h37.16v4.645c0 4.269-3.472 7.742-7.741 7.742h-1.548zm9.118 0a10.799 10.799 0 003.269-7.742V82.09a29.265 29.265 0 009.29 1.524c16.223 0 29.42-13.197 29.42-29.42 0-16.222-13.198-29.419-29.42-29.419-16.223 0-29.42 13.197-29.42 29.42 0 2.519.35 4.98.97 7.376a7.647 7.647 0 00-4.066-1.183 7.624 7.624 0 00-3.636.932 7.803 7.803 0 00-1.01-.895V21.677h74.323v71.226h-49.72z" fill="#000"/><path d="M26.323 15.484a4.651 4.651 0 004.645-4.645 4.651 4.651 0 00-4.645-4.645 4.651 4.651 0 00-4.646 4.645 4.651 4.651 0 004.646 4.645zm0-6.194a1.55 1.55 0 011.548 1.549 1.55 1.55 0 01-1.548 1.548 1.55 1.55 0 01-1.549-1.548 1.55 1.55 0 011.549-1.549zm12.387 6.194a4.651 4.651 0 004.645-4.645 4.651 4.651 0 00-4.645-4.645 4.651 4.651 0 00-4.645 4.645 4.651 4.651 0 004.645 4.645zm0-6.194a1.55 1.55 0 011.548 1.549 1.55 1.55 0 01-1.548 1.548 1.55 1.55 0 01-1.549-1.548A1.55 1.55 0 0138.71 9.29zm12.387 6.194a4.651 4.651 0 004.645-4.645 4.651 4.651 0 00-4.645-4.645 4.651 4.651 0 00-4.645 4.645 4.651 4.651 0 004.645 4.645zm0-6.194a1.55 1.55 0 011.548 1.549 1.55 1.55 0 01-1.548 1.548 1.55 1.55 0 01-1.549-1.548 1.55 1.55 0 011.549-1.549zm35.613 3.097h3.097v3.097H86.71v-3.097zm0-6.193h3.097V9.29H86.71V6.194zm-6.194 6.193h3.097v3.097h-3.097v-3.097zm0-6.193h3.097V9.29h-3.097V6.194zm-6.193 6.193h3.096v3.097h-3.096v-3.097zm0-6.193h3.096V9.29h-3.096V6.194zm-6.193 6.193h3.096v3.097h-3.097v-3.097zm0-6.193h3.096V9.29h-3.097V6.194z" fill="#000"/></svg>