<svg width="100" height="100" fill="none" xmlns="http://www.w3.org/2000/svg"><g clip-path="url(#clip0)" fill="#000"><path d="M71.637 70.452a1.953 1.953 0 00-2.763 2.762l6.252 6.252c.382.381.882.572 1.382.572a1.953 1.953 0 001.381-3.334l-6.252-6.252zm-6.577 7.974a1.953 1.953 0 10-3.78.984l1.996 7.668a1.954 1.954 0 003.78-.985l-1.996-7.667zM85.502 64.86l-7.667-2.003a1.954 1.954 0 00-.987 3.78l7.667 2.002a1.954 1.954 0 00.987-3.78zM27.295 30.924c.382.382.881.572 1.381.572s1-.19 1.381-.572c.763-.762.763-2 0-2.762l-6.252-6.252a1.954 1.954 0 00-2.762 2.762l6.252 6.252zM13.43 36.516l7.667 2.002a1.954 1.954 0 00.987-3.78l-7.667-2.001a1.953 1.953 0 10-.987 3.78zM33.872 22.95a1.954 1.954 0 003.78-.986l-2.002-7.667a1.953 1.953 0 10-3.78.987l2.002 7.667zM57.21 39.22a1.953 1.953 0 10-2.765 2.76l3.574 3.578c.381.383.882.574 1.382.574a1.953 1.953 0 001.382-3.333l-3.574-3.58z"/><path d="M100 18.182c0-1.33-.516-2.577-1.453-3.514L85.332 1.453A4.935 4.935 0 0081.82 0h-.007a4.918 4.918 0 00-3.503 1.453L69 10.76l-1.937-1.937a3.377 3.377 0 00-2.415-.99h-.008c-1.009 0-2.01.423-2.75 1.163l-6.102 6.101c-.741.742-1.165 1.748-1.163 2.759.002.926.354 1.784.984 2.408l.742.743c-1.734 4.934-2.848 7.007-5.786 9.945l-6.47 6.47a5.316 5.316 0 00-1.562 3.786c0 1.434.555 2.779 1.562 3.786l10.91 10.91a5.32 5.32 0 003.788 1.567h.006a5.304 5.304 0 003.778-1.566l6.47-6.47c2.93-2.93 5.003-4.044 9.943-5.784l.745.745a3.384 3.384 0 002.414.978c.977 0 1.98-.39 2.753-1.163l6.096-6.096c.742-.737 1.17-1.739 1.171-2.748a3.386 3.386 0 00-.981-2.424l-1.946-1.946 9.305-9.3A4.939 4.939 0 00100 18.181zM82.226 41.363l-5.584-5.584a1.953 1.953 0 00-2.763 2.762l2.061 2.061c-3.97 1.496-6.507 2.923-9.655 6.071l-6.473 6.473c-.27.27-.63.419-1.017.42h-.002c-.39 0-.753-.15-1.026-.423l-10.91-10.91a1.467 1.467 0 010-2.048l6.47-6.47c3.026-3.026 4.457-5.395 6.07-9.658l2.078 2.08a1.953 1.953 0 102.763-2.761L58.64 17.77l5.923-5.922 23.592 23.586-5.928 5.928zm13.56-22.429l-9.307 9.302-14.716-14.713 9.311-9.311c.264-.266.58-.306.743-.306h.002c.166 0 .483.04.751.309L95.785 17.43c.269.268.309.586.309.752 0 .166-.04.484-.309.752z"/><path d="M69.06 32.911a1.953 1.953 0 001.392-3.322l-.006-.006a1.95 1.95 0 00-2.759-.02 1.956 1.956 0 001.372 3.348zM29.571 46.31a5.577 5.577 0 00-3.97-1.642 5.577 5.577 0 00-3.97 1.641L8.817 59.122a5.622 5.622 0 000 7.94l1.94 1.94-9.302 9.304A4.921 4.921 0 000 81.813a4.935 4.935 0 001.453 3.52l13.215 13.214A4.937 4.937 0 0018.181 100c1.33 0 2.578-.516 3.515-1.453l9.3-9.305 1.941 1.94a5.601 5.601 0 003.973 1.643 5.6 5.6 0 003.973-1.643L53.696 78.37c2.185-2.185 2.186-5.746 0-7.941l-24.125-24.12zM18.935 95.784a1.06 1.06 0 01-.753.309 1.06 1.06 0 01-.752-.309L4.215 82.57a1.059 1.059 0 01-.309-.753c0-.164.04-.479.31-.746l9.305-9.306L28.235 86.48l-9.3 9.305zm32-20.177L38.121 88.42a1.7 1.7 0 01-1.211.497 1.7 1.7 0 01-1.21-.497L11.58 64.3a1.71 1.71 0 010-2.417l12.811-12.812a1.7 1.7 0 011.209-.497c.458 0 .887.176 1.208.498l24.123 24.117c.655.657.656 1.765.002 2.419z"/><path d="M27.798 56.017c-.763-.762-2-.762-2.762 0l-6.51 6.51c-.762.763-.762 2 0 2.762l16.185 16.19a1.953 1.953 0 002.762 0l6.515-6.515a1.954 1.954 0 000-2.762l-16.19-16.185zm8.294 21.319L22.67 63.908l3.747-3.747 13.428 13.422-3.753 3.753z"/></g><defs><clipPath id="clip0"><path fill="#fff" d="M0 0h100v100H0z"/></clipPath></defs></svg>